# xmcd CD database file
#
# Track frame offsets:
#	150
#	17040
#	41261
#	56435
#	83393
#
# Disc length: 1622 seconds
#
# Revision: 1
# Processed by: cddbd v1.5.2PL0 Copyright (c) Steve Scherf et al.
# Submitted via: CDex 1.70beta3
#
DISCID=29065405
DTITLE=Tommy Flanagan - The Cool Jazz Collection 66
DYEAR=1900
DGENRE=Jazz
TTITLE0=In the Blue of the Evening
TTITLE1=Valvet Moon
TTITLE2=Relaxin' at Camarillo
TTITLE3=How Long Has This Been Going on?
TTITLE4=Blue Bossa
EXTD=
EXTT0=
EXTT1=
EXTT2=
EXTT3=
EXTT4=
PLAYORDER=
